<svg width="35" height="45" viewBox="0 0 35 45" fill="none" xmlns="http://www.w3.org/2000/svg">
<path d="M17.5 44.5833C16.9458 44.5833 16.4708 44.4361 16.075 44.1417C15.6792 43.8472 15.3823 43.4608 15.1844 42.9823C14.4323 40.9212 13.4823 38.9889 12.3344 37.1854C11.226 35.382 9.6625 33.2656 7.64375 30.8365C5.625 28.4073 3.98229 26.0885 2.71562 23.8802C1.48854 21.6719 0.875 19.0035 0.875 15.875C0.875 11.5688 2.47812 7.925 5.68437 4.94375C8.93021 1.9257 12.8688 0.416672 17.5 0.416672C22.1313 0.416672 26.05 1.9257 29.2562 4.94375C32.5021 7.925 34.125 11.5688 34.125 15.875C34.125 19.2243 33.4323 22.0215 32.0469 24.2667C30.701 26.475 29.1375 28.6649 27.3563 30.8365C25.2188 33.4865 23.5958 35.6948 22.4875 37.4615C21.4188 39.1913 20.5281 41.0316 19.8156 42.9823C19.6177 43.4976 19.301 43.9024 18.8656 44.1969C18.4698 44.4545 18.0146 44.5833 17.5 44.5833ZM17.5 21.3958C19.1625 21.3958 20.5677 20.8622 21.7156 19.7948C22.8635 18.7274 23.4375 17.4208 23.4375 15.875C23.4375 14.3292 22.8635 13.0226 21.7156 11.9552C20.5677 10.8879 19.1625 10.3542 17.5 10.3542C15.8375 10.3542 14.4323 10.8879 13.2844 11.9552C12.1365 13.0226 11.5625 14.3292 11.5625 15.875C11.5625 17.4208 12.1365 18.7274 13.2844 19.7948C14.4323 20.8622 15.8375 21.3958 17.5 21.3958Z" fill="#1A1B21"/>
</svg>
