<svg width="193" height="50" viewBox="0 0 193 50" fill="none" xmlns="http://www.w3.org/2000/svg">
<g opacity="0.35">
<path fill-rule="evenodd" clip-rule="evenodd" d="M65.0711 0H129.593V49.2676H65.0711V0Z" fill="#229E45"/>
<path fill-rule="evenodd" clip-rule="evenodd" d="M97.4735 44.7513L127.87 24.6645L97.292 4.51614L66.7951 24.7056L97.4735 44.7513Z" fill="#F8E509"/>
<path fill-rule="evenodd" clip-rule="evenodd" d="M110.721 24.6338C110.721 31.8494 104.964 37.6999 97.8566 37.6999C95.3167 37.6959 92.8351 36.9253 90.7253 35.4855C88.6156 34.0457 86.9725 32.0014 86.0037 29.6111C85.035 27.2207 84.7841 24.5916 85.2828 22.0561C85.7815 19.5206 87.0073 17.1925 88.8054 15.3662C90.6035 13.5399 92.893 12.2973 95.3846 11.7956C97.8762 11.2939 100.458 11.5555 102.804 12.5474C105.149 13.5393 107.153 15.2169 108.562 17.3682C109.972 19.5196 110.723 22.0479 110.721 24.6338Z" fill="#2B49A3"/>
<path fill-rule="evenodd" clip-rule="evenodd" d="M93.6322 32.4652L93.2289 32.2291L92.8256 32.4344L92.9164 31.9725L92.5938 31.6235L93.0474 31.5722L93.2692 31.1617L93.4608 31.5928L93.9044 31.6749L93.5717 31.9828M102.242 34.6822L101.849 34.4462L101.445 34.6514L101.526 34.1896L101.214 33.8508L101.667 33.7995L101.879 33.3787L102.081 33.8098L102.524 33.8919L102.181 34.2101M98.5318 31.1309L98.1891 30.9256L97.8362 31.1103L97.9169 30.71L97.6346 30.4124L98.0378 30.3713L98.2193 30.0018L98.3806 30.3816L98.7738 30.4534L98.4714 30.7306M107.242 29.8581L106.9 29.6528L106.547 29.8376L106.627 29.4373L106.355 29.1499L106.748 29.1088L106.93 28.7496L107.091 29.1191L107.474 29.191L107.182 29.4578M98.3806 27.1997L97.9774 26.9739L97.5741 27.1792L97.6547 26.7071L97.3422 26.3683L97.7959 26.317L98.0076 25.8962L98.2092 26.3273L98.6528 26.4094L98.31 26.7378M87.7647 23.1454L87.3614 22.9196L86.9582 23.1249L87.059 22.6527L86.7263 22.314L87.19 22.2627L87.3917 21.8419L87.5933 22.273L88.0369 22.3551L87.7042 22.6733M89.045 28.5443L88.6418 28.3082L88.2385 28.5135L88.3292 28.0516L88.0066 27.7129L88.4603 27.6513L88.672 27.2408L88.8737 27.6719L89.3172 27.754L88.9846 28.0722M102.292 21.1644L101.929 20.9592L101.566 21.1439L101.647 20.7334L101.365 20.4254L101.768 20.3741L101.96 20.0046L102.131 20.3946L102.534 20.4665L102.232 20.7436M101.556 24.6748L101.284 24.5105L100.992 24.6542L101.052 24.3258L100.83 24.0897L101.153 24.0487L101.304 23.7613L101.435 24.0692L101.738 24.1205L101.516 24.3463M87.1799 29.5194L86.9077 29.3654L86.6355 29.4989L86.696 29.191L86.4843 28.9651L86.7868 28.9241L86.9279 28.647L87.059 28.9344L87.3614 28.9959L87.1295 29.2012M107.313 30.7716L107.091 30.6587L106.869 30.7614L106.92 30.5253L106.748 30.3611L106.99 30.3303L107.111 30.125L107.212 30.3303L107.464 30.3816L107.273 30.5356" fill="#FFFFEF"/>
<path fill-rule="evenodd" clip-rule="evenodd" d="M87.1799 29.518L86.9077 29.3643L86.6355 29.4975L86.696 29.1901L86.4843 28.9647L86.7868 28.9238L86.9279 28.6471L87.059 28.934L87.3614 28.9955L87.1295 29.2004" fill="#FFFFEF"/>
<path fill-rule="evenodd" clip-rule="evenodd" d="M87.1799 29.5194L86.9077 29.3654L86.6355 29.4989L86.696 29.191L86.4843 28.9652L86.7868 28.9241L86.9279 28.647L87.059 28.9344L87.3614 28.9959L87.1295 29.2012M91.3941 29.5091L91.1319 29.3654L90.8597 29.4989L90.9202 29.191L90.7085 28.9652L91.011 28.9241L91.1521 28.647L91.2832 28.9344L91.5856 28.9857L91.3537 29.2012M90.8698 30.9461L90.6077 30.7922L90.3355 30.9359L90.396 30.6279L90.1843 30.3919L90.4867 30.3508L90.6279 30.0737L90.7589 30.3611L91.0614 30.4226L90.8295 30.6279M99.6408 28.3493L99.3787 28.1851L99.0964 28.3288L99.1569 28.0209L98.9553 27.7848L99.2577 27.754L99.3989 27.4769L99.5198 27.7643L99.8223 27.8156L99.6005 28.0311M97.07 28.339L96.7978 28.1851L96.5256 28.3288L96.5861 28.0209L96.3845 27.7848L96.6869 27.754L96.828 27.4666L96.949 27.7643L97.2515 27.8156L97.0297 28.0311M90.0935 27.4358L89.9221 27.3332L89.7508 27.4153L89.7911 27.2203L89.66 27.0766L89.8516 27.056L89.9322 26.8815L90.0129 27.0663L90.2044 27.0971L90.0633 27.2305M106.98 31.8904L106.718 31.7365L106.446 31.8801L106.506 31.5722L106.295 31.3362L106.597 31.2951L106.738 31.018L106.869 31.3054L107.172 31.3669L106.94 31.5722M104.843 32.1881L104.621 32.0444L104.389 32.1675L104.44 31.9007L104.268 31.7159L104.52 31.6851L104.641 31.4491L104.742 31.6954L104.994 31.7365L104.803 31.9212M105.851 32.1573L105.649 32.0341L105.438 32.1368L105.478 31.9007L105.317 31.7262L105.549 31.6954L105.66 31.4901L105.76 31.6954L105.992 31.7467L105.821 31.9109M108.755 29.5707L108.553 29.4681L108.351 29.5707L108.402 29.3347L108.24 29.1602L108.472 29.1294L108.573 28.9241L108.674 29.1396L108.886 29.1807L108.724 29.3449M104.813 33.6353L104.561 33.4916L104.288 33.6148L104.349 33.3274L104.147 33.1221L104.45 33.0913L104.581 32.8347L104.702 33.1016L105.004 33.1529L104.772 33.3479M104.833 34.8054L104.591 34.6617L104.349 34.7951L104.409 34.5078L104.218 34.3025L104.49 34.2614L104.611 34.0048L104.722 34.2717L104.994 34.323L104.793 34.5283M102.877 32.1573L102.685 32.0341L102.484 32.1368L102.524 31.9109L102.373 31.7365L102.595 31.7159L102.696 31.5106L102.796 31.7159L103.018 31.757L102.857 31.9212M101.062 32.1573L100.861 32.0341L100.659 32.1368L100.709 31.9109L100.548 31.7365L100.78 31.7159L100.881 31.5106L100.982 31.7159L101.193 31.757L101.032 31.9212M97.9673 29.3962L97.7656 29.2833L97.564 29.386L97.6144 29.1499L97.4531 28.9857L97.6749 28.9549L97.7757 28.7496L97.8765 28.9549L98.0983 29.0062L97.937 29.1602M98.31 35.0107L98.1487 34.9183L97.9673 35.0107L98.0076 34.8054L97.8765 34.6617L98.0681 34.6412L98.1588 34.4667L98.2395 34.6514L98.431 34.6822L98.2899 34.8157M93.6322 25.927L93.2289 25.6909L92.8256 25.8962L92.9164 25.4343L92.5938 25.0956L93.0474 25.034L93.2692 24.6234L93.4608 25.0545L93.9044 25.1366L93.5717 25.4548" fill="#FFFFEF"/>
<path fill-rule="evenodd" clip-rule="evenodd" d="M109.874 29.3347C110.124 28.6749 110.319 27.9951 110.459 27.3024C103.623 21.1952 96.0117 18.0647 86.3939 18.7113C86.045 19.3985 85.7582 20.1165 85.5369 20.8565C96.9291 19.748 105.297 24.8801 109.874 29.3347Z" fill="white"/>
<path d="M106.809 25.9064L107.041 26.0398C107.006 26.1095 106.996 26.1891 107.011 26.2657C107.034 26.3399 107.085 26.4023 107.152 26.4401C107.222 26.4915 107.293 26.5223 107.354 26.512C107.414 26.512 107.454 26.4812 107.485 26.4401C107.502 26.4129 107.509 26.38 107.505 26.3478C107.496 26.3099 107.479 26.2746 107.454 26.2451C107.434 26.2143 107.384 26.1425 107.303 26.0604C107.22 25.9733 107.158 25.8679 107.122 25.7525C107.096 25.6651 107.103 25.5714 107.14 25.4885C107.177 25.4056 107.242 25.339 107.323 25.3008C107.397 25.2697 107.478 25.2625 107.555 25.2803C107.65 25.3025 107.739 25.3445 107.817 25.4035C107.958 25.5061 108.049 25.6088 108.079 25.7319C108.093 25.7895 108.095 25.8495 108.085 25.9079C108.074 25.9662 108.052 26.0217 108.019 26.0706L107.777 25.9167C107.807 25.8551 107.817 25.7935 107.797 25.7422C107.787 25.6909 107.747 25.6395 107.676 25.5985C107.624 25.5561 107.561 25.531 107.495 25.5266C107.476 25.526 107.458 25.5305 107.442 25.5395C107.426 25.5485 107.413 25.5618 107.404 25.578C107.384 25.6088 107.384 25.6395 107.394 25.6806C107.404 25.7217 107.454 25.8038 107.555 25.9064C107.656 26.0091 107.716 26.1014 107.757 26.163C107.793 26.2303 107.809 26.3067 107.804 26.3831C107.798 26.4595 107.772 26.5327 107.727 26.5941C107.679 26.6639 107.613 26.7175 107.535 26.7481C107.459 26.7835 107.375 26.7943 107.293 26.7789C107.202 26.7583 107.112 26.7173 107.011 26.6454C106.86 26.5428 106.769 26.4299 106.739 26.3067C106.706 26.167 106.727 26.0199 106.799 25.8961L106.809 25.9064ZM105.64 25.1263L105.892 25.2598C105.86 25.3307 105.853 25.4101 105.872 25.4856C105.897 25.556 105.948 25.6144 106.013 25.6498C106.093 25.7011 106.154 25.7217 106.214 25.7114C106.275 25.7114 106.315 25.6806 106.345 25.6293C106.361 25.6049 106.368 25.576 106.366 25.5472C106.366 25.5164 106.345 25.4753 106.315 25.4445C106.263 25.3811 106.21 25.3194 106.154 25.2598C106.043 25.1469 105.972 25.0545 105.952 24.9724C105.936 24.9196 105.931 24.8637 105.938 24.8087C105.945 24.7538 105.963 24.701 105.993 24.6542C106.031 24.5909 106.087 24.5408 106.154 24.5105C106.223 24.478 106.3 24.4673 106.376 24.4797C106.469 24.4957 106.558 24.5306 106.638 24.5823C106.789 24.685 106.88 24.7876 106.91 24.9005C106.928 24.9582 106.934 25.0193 106.927 25.0795C106.92 25.1397 106.901 25.1977 106.87 25.2495L106.618 25.1058C106.648 25.034 106.658 24.9826 106.638 24.9313C106.618 24.88 106.577 24.8287 106.507 24.7876C106.451 24.7469 106.384 24.7253 106.315 24.726C106.299 24.7272 106.283 24.7325 106.268 24.7414C106.254 24.7504 106.243 24.7627 106.234 24.7774C106.214 24.8082 106.214 24.8389 106.224 24.88C106.234 24.9211 106.295 25.0032 106.396 25.1058C106.497 25.2085 106.567 25.2906 106.597 25.3522C106.638 25.4165 106.659 25.4913 106.659 25.5677C106.659 25.6441 106.638 25.7189 106.597 25.7832C106.554 25.8548 106.491 25.9119 106.416 25.9475C106.34 25.9829 106.256 25.9937 106.174 25.9783C106.07 25.9604 105.971 25.922 105.882 25.8654C105.751 25.7946 105.651 25.6778 105.599 25.5369C105.56 25.3999 105.575 25.2528 105.64 25.1263ZM104.208 24.7363L104.944 23.5046L105.831 24.0691L105.71 24.2744L105.065 23.8639L104.904 24.141L105.509 24.5208L105.378 24.726L104.773 24.3463L104.571 24.685L105.246 25.0955L105.125 25.3008L104.218 24.7363H104.208ZM102.121 22.9914L102.232 22.7861L102.776 23.0633L102.524 23.5765C102.444 23.597 102.343 23.6073 102.222 23.597C102.106 23.584 101.993 23.5492 101.889 23.4944C101.767 23.4338 101.663 23.3418 101.587 23.2275C101.518 23.1213 101.482 22.9957 101.486 22.8682C101.491 22.7355 101.526 22.6057 101.587 22.4885C101.647 22.365 101.738 22.2591 101.849 22.1806C101.956 22.1055 102.082 22.0661 102.212 22.0676C102.313 22.0676 102.414 22.0984 102.535 22.1703C102.696 22.2421 102.797 22.3448 102.847 22.4577C102.899 22.5698 102.91 22.6974 102.877 22.8169L102.605 22.7348C102.622 22.6661 102.615 22.5936 102.585 22.5295C102.555 22.4679 102.504 22.4269 102.424 22.3858C102.377 22.3585 102.324 22.3416 102.271 22.3363C102.217 22.331 102.162 22.3374 102.111 22.355C102.01 22.3858 101.92 22.4782 101.849 22.6219C101.778 22.7656 101.748 22.899 101.778 23.0119C101.792 23.0655 101.818 23.1153 101.852 23.1578C101.887 23.2004 101.931 23.2347 101.98 23.2583C102.03 23.2891 102.091 23.3096 102.151 23.3096C102.212 23.3189 102.273 23.3189 102.333 23.3096L102.414 23.1454L102.121 22.9914ZM93.0276 20.7025L93.2292 19.2656L93.6526 19.3374L93.7635 20.3433L94.1567 19.4195L94.5801 19.4811L94.3785 20.8975L94.1063 20.8565L94.2777 19.7377L93.8341 20.8154L93.5619 20.7744L93.451 19.6145L93.2897 20.7436L93.0276 20.7025ZM91.606 20.528L91.7371 19.0911L92.7755 19.1937L92.7554 19.44L91.9992 19.3682L91.969 19.6761L92.6747 19.748L92.6445 19.9943L91.9387 19.9225L91.9085 20.3125L92.6949 20.3843L92.6747 20.6307L91.606 20.528Z" fill="#309E3A"/>
<path d="M86.8977 19.6352C86.8977 19.4812 86.928 19.3683 86.9683 19.2657C87.0036 19.1927 87.0514 19.1267 87.1094 19.0707C87.1611 19.0176 87.2229 18.9757 87.2909 18.9475C87.3917 18.9167 87.4925 18.8962 87.5934 18.8962C87.8051 18.8962 87.9664 18.9783 88.0974 19.1015C88.1598 19.1799 88.2062 19.2703 88.2339 19.3672C88.2616 19.4641 88.2701 19.5657 88.2587 19.666C88.2587 19.8918 88.1882 20.0765 88.0571 20.21C87.9898 20.2734 87.9101 20.3216 87.8233 20.3517C87.7364 20.3818 87.6444 20.3929 87.553 20.3845C87.4629 20.3854 87.3736 20.3677 87.2904 20.3324C87.2072 20.2971 87.1319 20.245 87.0691 20.1792C86.9437 20.028 86.882 19.8325 86.8977 19.6352Z" fill="#309E3A"/>
<path d="M87.1901 19.6339C87.1901 19.7875 87.2203 19.9105 87.2909 20.0027C87.3615 20.0847 87.4522 20.1359 87.5732 20.1359C87.6255 20.1396 87.678 20.1314 87.7268 20.1119C87.7757 20.0924 87.8196 20.0621 87.8555 20.0232C87.926 19.9412 87.9563 19.8183 87.9663 19.6441C87.9663 19.4802 87.9462 19.3572 87.8655 19.2753C87.8327 19.234 87.7912 19.2006 87.7442 19.1776C87.6971 19.1545 87.6456 19.1424 87.5933 19.1421C87.5403 19.1403 87.4875 19.1505 87.4388 19.1717C87.39 19.1929 87.3464 19.2248 87.311 19.265C87.2304 19.347 87.2001 19.4699 87.1901 19.6339Z" fill="#F7FFFF"/>
<path d="M88.5613 20.3742L88.5815 18.9372H89.1864C89.3376 18.9372 89.4384 18.9577 89.509 18.9885C89.5796 19.009 89.63 19.0604 89.6703 19.1219C89.7106 19.1835 89.7308 19.2656 89.7308 19.358C89.7316 19.4568 89.6956 19.5521 89.63 19.6249C89.5555 19.696 89.4596 19.7394 89.3578 19.7481L89.509 19.8712C89.5493 19.9123 89.5997 19.9944 89.6602 20.1073L89.8316 20.3947H89.4888L89.2872 20.0662L89.1461 19.861C89.1216 19.8327 89.0903 19.8115 89.0553 19.7994C89.0095 19.7858 88.962 19.7788 88.9142 19.7788H88.8537V20.3742H88.5613Z" fill="#309E3A"/>
<path d="M88.864 19.5534H89.0656C89.2068 19.5534 89.2975 19.5534 89.3278 19.5328C89.358 19.5328 89.3883 19.502 89.4084 19.4814C89.4286 19.4609 89.4387 19.4094 89.4387 19.3786C89.4387 19.3169 89.4286 19.2758 89.3983 19.2552C89.3782 19.2243 89.3378 19.2038 89.2975 19.1935H89.0959L88.864 19.1832V19.5431V19.5534Z" fill="white"/>
<path d="M90.1743 19.0091L90.6986 19.0399C90.8095 19.0399 90.9002 19.0502 90.9607 19.0707C91.0392 19.0997 91.1087 19.1492 91.1623 19.2144C91.2204 19.2861 91.2618 19.3704 91.2833 19.4607C91.3136 19.5531 91.3236 19.666 91.3136 19.7994C91.3135 19.9042 91.2964 20.0082 91.2631 20.1074C91.2228 20.21 91.1623 20.2921 91.0918 20.3537C91.033 20.403 90.9641 20.4381 90.8901 20.4563C90.8296 20.4769 90.7389 20.4769 90.6381 20.4769L90.1038 20.4461L90.1743 19.0091Z" fill="#309E3A"/>
<path d="M90.4466 19.2662L90.3962 20.219H90.7793C90.8297 20.219 90.87 20.1985 90.9003 20.1678C90.9305 20.1371 90.9607 20.0961 90.9809 20.0346C91.0011 19.9731 91.0212 19.8809 91.0212 19.7682L91.0112 19.5121C90.9968 19.458 90.969 19.4087 90.9305 19.3686C90.897 19.3344 90.8553 19.3097 90.8095 19.2969C90.7333 19.2797 90.6557 19.2694 90.5776 19.2662H90.4466Z" fill="white"/>
<path d="M97.0905 21.5752L97.4232 20.1793L97.8668 20.2819L98.1894 20.3845C98.26 20.4256 98.3204 20.4872 98.3507 20.5796C98.391 20.6617 98.391 20.754 98.3708 20.867C98.3507 20.9491 98.3204 21.0209 98.27 21.0722C98.2331 21.1173 98.1868 21.1535 98.1345 21.1784C98.0823 21.2032 98.0253 21.216 97.9676 21.2159C97.897 21.2159 97.7962 21.1954 97.6651 21.1646L97.4937 21.1133L97.3728 21.647L97.0905 21.5752Z" fill="#309E3A"/>
<path d="M97.6349 20.4871L97.5543 20.8779L97.7055 20.919C97.8063 20.9396 97.887 20.9601 97.9273 20.9499C97.9665 20.9443 98.0031 20.9265 98.032 20.8989C98.0608 20.8712 98.0806 20.8352 98.0886 20.7956C98.0886 20.7442 98.0886 20.7031 98.0684 20.6619C98.0463 20.6201 98.0107 20.5874 97.9676 20.5694L97.7761 20.5179L97.645 20.4871H97.6349Z" fill="white"/>
<path d="M98.4009 21.9753L98.8747 20.6205L99.4292 20.8257C99.5804 20.8771 99.6712 20.9284 99.7316 20.9694C99.7821 21.0208 99.8224 21.0721 99.8325 21.1542C99.8425 21.2363 99.8526 21.3081 99.8325 21.3903C99.7921 21.4929 99.7317 21.5647 99.651 21.6161C99.5703 21.6571 99.4695 21.6674 99.3485 21.6469C99.3889 21.6982 99.4292 21.7495 99.4494 21.8111L99.53 22.0882L99.5905 22.4064L99.278 22.2935L99.1772 21.924C99.1588 21.8404 99.1353 21.7581 99.1066 21.6777C99.0932 21.6457 99.0725 21.6176 99.0461 21.5955C99.0259 21.5647 98.9856 21.5442 98.915 21.5237L98.8646 21.5032L98.663 22.078L98.4009 21.9753Z" fill="#309E3A"/>
<path d="M98.9454 21.2882L99.1369 21.3602C99.268 21.4116 99.3486 21.4322 99.389 21.4322C99.4192 21.4322 99.4495 21.4322 99.4797 21.4013C99.51 21.3808 99.5301 21.3499 99.5402 21.3088C99.5604 21.2676 99.5604 21.2265 99.5402 21.1854C99.5253 21.1455 99.4966 21.1126 99.4595 21.0928L99.2579 21.0208L99.0563 20.9489L98.9353 21.2882H98.9454Z" fill="white"/>
<path d="M100.054 21.924C100.089 21.8039 100.147 21.6921 100.226 21.5956C100.277 21.5337 100.338 21.4815 100.407 21.4416C100.47 21.4057 100.538 21.3814 100.609 21.3698C100.71 21.3698 100.81 21.3698 100.921 21.4108C101.011 21.4335 101.096 21.4755 101.169 21.5339C101.242 21.5923 101.302 21.6658 101.345 21.7496C101.425 21.9138 101.425 22.1088 101.365 22.3346C101.315 22.5286 101.192 22.6946 101.022 22.7965C100.871 22.8889 100.689 22.8991 100.498 22.8375C100.408 22.8142 100.324 22.7721 100.251 22.7137C100.178 22.6554 100.118 22.5822 100.075 22.4988C100.034 22.4091 100.012 22.3121 100.008 22.2135C100.005 22.1148 100.02 22.0165 100.054 21.924Z" fill="#309E3A"/>
<path d="M100.337 22.005C100.296 22.1587 100.286 22.2919 100.337 22.3944C100.387 22.4968 100.458 22.5583 100.568 22.5993C100.669 22.63 100.77 22.6198 100.871 22.5583C100.972 22.5071 101.032 22.3944 101.083 22.2304C101.133 22.0768 101.133 21.9538 101.083 21.8514C101.063 21.8027 101.033 21.7592 100.994 21.7238C100.956 21.6884 100.91 21.662 100.861 21.6464C100.811 21.629 100.759 21.6228 100.706 21.6281C100.654 21.6334 100.604 21.6501 100.558 21.6772C100.458 21.7387 100.387 21.8411 100.337 22.005Z" fill="white"/>
<path d="M102.806 23.9255L103.452 22.6527L103.986 22.9299C104.087 22.9791 104.179 23.045 104.258 23.1249C104.309 23.1762 104.339 23.2378 104.339 23.3199C104.339 23.402 104.339 23.4739 104.299 23.5457C104.26 23.638 104.188 23.7115 104.097 23.751C103.996 23.7715 103.895 23.7715 103.784 23.7305C103.825 23.7921 103.845 23.8536 103.865 23.905C103.885 23.9665 103.895 24.0589 103.905 24.1924L103.926 24.5208L103.623 24.3668L103.583 23.9871C103.578 23.901 103.568 23.8153 103.552 23.7305C103.546 23.6921 103.528 23.6565 103.502 23.6278L103.381 23.556L103.331 23.5252L103.058 24.0589L102.806 23.9255Z" fill="#309E3A"/>
<path d="M103.432 23.3193L103.623 23.4217C103.744 23.4832 103.825 23.5242 103.855 23.5242C103.885 23.5242 103.926 23.5242 103.956 23.5037C103.986 23.4934 104.006 23.4627 104.026 23.4217C104.047 23.3807 104.057 23.3397 104.047 23.2988C104.034 23.258 104.009 23.2222 103.976 23.1963C103.917 23.1595 103.856 23.1253 103.795 23.0939L103.593 22.9914L103.432 23.3193Z" fill="white"/>
<path d="M108.029 26.5532C108.094 26.4477 108.18 26.3568 108.281 26.2863C108.349 26.2421 108.424 26.2108 108.503 26.194C108.576 26.1788 108.651 26.1788 108.724 26.194C108.825 26.2145 108.916 26.2555 109.007 26.3171C109.085 26.3669 109.153 26.4327 109.205 26.5105C109.257 26.5883 109.292 26.6762 109.309 26.7687C109.339 26.9432 109.289 27.1383 109.168 27.3333C109.067 27.5029 108.904 27.6247 108.714 27.672C108.624 27.6918 108.531 27.692 108.44 27.6726C108.35 27.6531 108.265 27.6144 108.19 27.5591C108.112 27.5093 108.044 27.4435 107.992 27.3657C107.94 27.288 107.904 27.2 107.888 27.1075C107.857 26.9227 107.908 26.738 108.029 26.5532Z" fill="#309E3A"/>
<path d="M108.281 26.7168C108.18 26.85 108.15 26.973 108.17 27.0857C108.177 27.1376 108.196 27.1873 108.223 27.2314C108.251 27.2756 108.288 27.3132 108.331 27.3418C108.432 27.4135 108.533 27.434 108.634 27.4033C108.735 27.3725 108.835 27.3008 108.926 27.1574C109.017 27.014 109.057 26.891 109.037 26.7885C109.027 26.6861 108.966 26.5939 108.876 26.5222C108.785 26.4504 108.674 26.4402 108.573 26.4709C108.472 26.4914 108.372 26.5734 108.271 26.7168H108.281Z" fill="white"/>
<path d="M95.4973 20.99L95.7292 19.9842L96.455 20.1587L96.4248 20.3229L95.8905 20.1997L95.8401 20.4255L96.3341 20.5384L96.2937 20.7129L95.7997 20.5897L95.7392 20.8669L96.2937 21.0003L96.2534 21.1645L95.4973 20.99Z" fill="#309E3A"/>
</g>
<g filter="url(#filter0_d_62_3)">
<path d="M4.008 36V14.24H11.176C13.4587 14.24 15.1653 14.816 16.296 15.968C17.448 17.12 18.024 18.656 18.024 20.576V22.272C18.024 24.192 17.448 25.7387 16.296 26.912C15.1653 28.064 13.4587 28.64 11.176 28.64H7.848V36H4.008ZM11.176 17.92H7.848V24.96H11.176C12.1147 24.96 12.8293 24.7253 13.32 24.256C13.832 23.7867 14.088 23.1253 14.088 22.272V20.576C14.088 19.744 13.832 19.0933 13.32 18.624C12.8293 18.1547 12.1147 17.92 11.176 17.92ZM37.775 22.816V27.392C37.775 30.1653 37.0817 32.352 35.695 33.952C34.3083 35.5307 32.2817 36.32 29.615 36.32C26.927 36.32 24.8897 35.5307 23.503 33.952C22.1377 32.352 21.455 30.1653 21.455 27.392V22.816C21.455 20.0427 22.1377 17.8667 23.503 16.288C24.8897 14.7093 26.927 13.92 29.615 13.92C32.2817 13.92 34.3083 14.7093 35.695 16.288C37.0817 17.8667 37.775 20.0427 37.775 22.816ZM33.839 22.816C33.839 21.0667 33.4977 19.7547 32.815 18.88C32.1323 17.984 31.0657 17.536 29.615 17.536C28.1643 17.536 27.0977 17.984 26.415 18.88C25.7323 19.7547 25.391 21.0667 25.391 22.816V27.392C25.391 29.1413 25.7323 30.464 26.415 31.36C27.0977 32.256 28.1643 32.704 29.615 32.704C31.0657 32.704 32.1323 32.256 32.815 31.36C33.4977 30.464 33.839 29.1413 33.839 27.392V22.816ZM55.3958 32.32V36H42.8518V14.24H46.6918V32.32H55.3958ZM62.9105 36H59.0705V14.24H62.9105V36ZM145.689 34.592C145.156 34.912 144.271 35.2853 143.033 35.712C141.817 36.1173 140.388 36.32 138.745 36.32C136.889 36.32 135.332 35.936 134.073 35.168C132.836 34.4 131.897 33.344 131.257 32C130.617 30.656 130.297 29.12 130.297 27.392V22.816C130.297 21.0453 130.617 19.4987 131.257 18.176C131.897 16.832 132.847 15.7867 134.105 15.04C135.385 14.2933 136.985 13.92 138.905 13.92C139.844 13.92 140.815 14.0267 141.817 14.24C142.82 14.432 143.919 14.7947 145.113 15.328L143.929 18.688C142.884 18.2827 141.977 17.9947 141.209 17.824C140.463 17.632 139.716 17.536 138.969 17.536C137.305 17.536 136.1 18.016 135.353 18.976C134.607 19.9147 134.233 21.1947 134.233 22.816V27.392C134.233 28.928 134.607 30.1867 135.353 31.168C136.121 32.1493 137.316 32.64 138.937 32.64C139.428 32.64 139.961 32.5973 140.537 32.512C141.113 32.4267 141.668 32.3093 142.201 32.16V27.392H138.681V24.032H145.689V34.592ZM163.179 32.32V36H150.571V14.24H162.859V17.92H154.411V23.136H161.899V26.816H154.411V32.32H163.179ZM171.919 14.24L177.999 29.12L184.047 14.24H188.239V36H184.559V27.68L185.039 20.064L179.631 33.44H176.207L170.927 20.032L171.407 27.68V36H167.727V14.24H171.919Z" fill="#34CB79"/>
<path d="M66.3223 17.92V14.24H82.3223V17.92H76.2423V36H72.4023V17.92H66.3223ZM89.598 36H85.758V14.24H89.598V36ZM98.5458 27.392C98.5458 28.9493 98.8871 30.2293 99.5698 31.232C100.252 32.2133 101.372 32.704 102.93 32.704C103.57 32.704 104.231 32.6187 104.914 32.448C105.618 32.2773 106.482 31.9893 107.506 31.584L108.69 34.912C107.538 35.424 106.471 35.7867 105.49 36C104.53 36.2133 103.602 36.32 102.706 36.32C100.914 36.32 99.4098 35.936 98.1938 35.168C96.9991 34.4 96.1031 33.344 95.5058 32C94.9084 30.656 94.6098 29.12 94.6098 27.392V22.816C94.6098 21.088 94.9084 19.552 95.5058 18.208C96.1031 16.864 96.9991 15.8187 98.1938 15.072C99.4098 14.304 100.914 13.92 102.706 13.92C103.58 13.92 104.487 14.0267 105.426 14.24C106.364 14.432 107.388 14.7733 108.498 15.264L107.314 18.656C106.332 18.2507 105.511 17.9627 104.85 17.792C104.188 17.6213 103.548 17.536 102.93 17.536C101.372 17.536 100.252 18.0267 99.5698 19.008C98.8871 19.9893 98.5458 21.2587 98.5458 22.816V27.392ZM124.28 36L122.936 31.744H115.48L114.136 36H110.328L117.592 14.24H120.984L128.28 36H124.28ZM117.56 25.088L116.568 28.224H121.816L120.824 25.088L119.224 19.584L117.56 25.088Z" fill="#F8E509"/>
</g>
<defs>
<filter id="filter0_d_62_3" x="0.00799561" y="13.92" width="192.231" height="30.4" filterUnits="userSpaceOnUse" color-interpolation-filters="sRGB">
<feFlood flood-opacity="0" result="BackgroundImageFix"/>
<feColorMatrix in="SourceAlpha" type="matrix" values="0 0 0 0 0 0 0 0 0 0 0 0 0 0 0 0 0 0 127 0" result="hardAlpha"/>
<feOffset dy="4"/>
<feGaussianBlur stdDeviation="2"/>
<feComposite in2="hardAlpha" operator="out"/>
<feColorMatrix type="matrix" values="0 0 0 0 0 0 0 0 0 0 0 0 0 0 0 0 0 0 0.25 0"/>
<feBlend mode="normal" in2="BackgroundImageFix" result="effect1_dropShadow_62_3"/>
<feBlend mode="normal" in="SourceGraphic" in2="effect1_dropShadow_62_3" result="shape"/>
</filter>
</defs>
</svg>
